<svg width="32" height="32" viewBox="0 0 32 32" fill="none" xmlns="http://www.w3.org/2000/svg">
<path d="M22.388 17.0616H6.67269C6.39809 17.0616 6.17103 16.9718 5.99148 16.7923C5.81194 16.6128 5.72217 16.3857 5.72217 16.1111C5.72217 15.8365 5.81194 15.6094 5.99148 15.4299C6.17103 15.2503 6.39809 15.1606 6.67269 15.1606H22.388L15.1957 7.96829C15.0056 7.77819 14.9105 7.5564 14.9105 7.30293C14.9105 7.04946 15.0056 6.82767 15.1957 6.63757C15.3858 6.44746 15.6076 6.35241 15.8611 6.35241C16.1145 6.35241 16.3363 6.44746 16.5264 6.63757L25.3346 15.4457C25.4402 15.5513 25.5141 15.657 25.5564 15.7626C25.5986 15.8682 25.6197 15.9844 25.6197 16.1111C25.6197 16.2378 25.5986 16.354 25.5564 16.4596C25.5141 16.5652 25.4402 16.6708 25.3346 16.7765L16.5264 25.5846C16.3363 25.7747 16.1145 25.8698 15.8611 25.8698C15.6076 25.8698 15.3858 25.7747 15.1957 25.5846C15.0056 25.3945 14.9105 25.1727 14.9105 24.9192C14.9105 24.6658 15.0056 24.444 15.1957 24.2539L22.388 17.0616Z" fill="white"/>
</svg>
