<svg width="22" height="21" viewBox="0 0 22 21" fill="none" xmlns="http://www.w3.org/2000/svg">
<path d="M10.9028 13.0981C10.8183 13.0981 10.7408 13.084 10.6704 13.0558C10.6 13.0277 10.5296 12.9784 10.4592 12.908L6.2769 8.72566C6.15016 8.59893 6.08679 8.45107 6.08679 8.28209C6.08679 8.11311 6.15016 7.96525 6.2769 7.83851C6.40363 7.71178 6.55501 7.64841 6.73103 7.64841C6.90706 7.64841 7.05844 7.71178 7.18517 7.83851L10.9028 11.5561L14.6204 7.83851C14.7471 7.71178 14.895 7.64841 15.0639 7.64841C15.2329 7.64841 15.3808 7.71178 15.5075 7.83851C15.6342 7.96525 15.6976 8.11663 15.6976 8.29265C15.6976 8.46867 15.6342 8.62005 15.5075 8.74679L11.3463 12.908C11.2759 12.9784 11.2055 13.0277 11.1351 13.0558C11.0647 13.084 10.9873 13.0981 10.9028 13.0981Z" fill="#213D77"/>
</svg>
