<svg width="26" height="26" viewBox="0 0 26 26" fill="none" xmlns="http://www.w3.org/2000/svg">
<path d="M8.89396 18.2427C9.11068 18.2427 9.29086 18.1698 9.43449 18.024C9.57813 17.8783 9.64995 17.6977 9.64995 17.4822V12.0326C9.64995 11.8171 9.57665 11.6365 9.43006 11.4908C9.28345 11.345 9.1018 11.2722 8.88509 11.2722C8.66837 11.2722 8.4882 11.345 8.34456 11.4908C8.20093 11.6365 8.12911 11.8171 8.12911 12.0326V17.4822C8.12911 17.6977 8.20241 17.8783 8.349 18.024C8.49561 18.1698 8.67726 18.2427 8.89396 18.2427ZM13.1016 18.2427C13.3183 18.2427 13.4985 18.1698 13.6421 18.024C13.7858 17.8783 13.8576 17.6977 13.8576 17.4822V8.7121C13.8576 8.49665 13.7843 8.31605 13.6377 8.1703C13.4911 8.02456 13.3094 7.95168 13.0927 7.95168C12.876 7.95168 12.6958 8.02456 12.5522 8.1703C12.4086 8.31605 12.3368 8.49665 12.3368 8.7121V17.4822C12.3368 17.6977 12.41 17.8783 12.5566 18.024C12.7032 18.1698 12.8849 18.2427 13.1016 18.2427ZM17.3092 18.2427C17.526 18.2427 17.7061 18.1698 17.8498 18.024C17.9934 17.8783 18.0652 17.6977 18.0652 17.4822V15.2517C18.0652 15.0362 17.9919 14.8556 17.8453 14.7099C17.6987 14.5641 17.5171 14.4913 17.3004 14.4913C17.0837 14.4913 16.9035 14.5641 16.7598 14.7099C16.6162 14.8556 16.5444 15.0362 16.5444 15.2517V17.4822C16.5444 17.6977 16.6177 17.8783 16.7643 18.024C16.9109 18.1698 17.0925 18.2427 17.3092 18.2427ZM5.493 22.2222C5.08745 22.2222 4.73258 22.0701 4.42842 21.7659C4.12425 21.4618 3.97217 21.1069 3.97217 20.7013V5.493C3.97217 5.08745 4.12425 4.73258 4.42842 4.42842C4.73258 4.12425 5.08745 3.97217 5.493 3.97217H20.7013C21.1069 3.97217 21.4618 4.12425 21.7659 4.42842C22.0701 4.73258 22.2222 5.08745 22.2222 5.493V20.7013C22.2222 21.1069 22.0701 21.4618 21.7659 21.7659C21.4618 22.0701 21.1069 22.2222 20.7013 22.2222H5.493ZM5.493 20.7013H20.7013V5.493H5.493V20.7013Z" fill="#333333"/>
</svg>
