<svg width="33" height="32" viewBox="0 0 33 32" fill="none" xmlns="http://www.w3.org/2000/svg">
<path d="M16.6802 28.0517C14.9864 28.0517 13.4041 27.7461 11.9332 27.1348C10.4624 26.5236 9.17533 25.6886 8.07213 24.6299C6.96893 23.5712 6.09778 22.3395 5.45867 20.9347C4.81956 19.5298 4.5 18.0199 4.5 16.4049C4.5 14.7898 4.81925 13.2751 5.45775 11.8606C6.09628 10.4462 6.96847 9.21449 8.07433 8.16562C9.18019 7.11677 10.4668 6.28643 11.9343 5.67459C13.4018 5.06275 14.979 4.75684 16.6661 4.75684C18.3531 4.75684 19.9353 5.06246 21.4128 5.67372C22.8904 6.28499 24.177 7.11457 25.2726 8.16245C26.3682 9.21033 27.2356 10.4426 27.8747 11.8591C28.5138 13.2757 28.8333 14.7864 28.8333 16.3913C28.8333 18.0128 28.5141 19.5276 27.8756 20.9357C27.2371 22.3438 26.3705 23.5739 25.2759 24.6261C24.1813 25.6782 22.8942 26.5122 21.4144 27.128C19.9347 27.7438 18.3566 28.0517 16.6802 28.0517ZM16.6706 27.0562C19.7634 27.0562 22.3904 26.0205 24.5516 23.949C26.7128 21.8775 27.7935 19.3613 27.7935 16.4005C27.7935 13.4397 26.7155 10.9248 24.5597 8.85583C22.4039 6.78683 19.7729 5.75234 16.6667 5.75234C13.5765 5.75234 10.9495 6.78425 8.78564 8.84806C6.6218 10.9119 5.53988 13.4306 5.53988 16.4043C5.53988 19.3626 6.6218 21.8775 8.78564 23.949C10.9495 26.0205 13.5778 27.0562 16.6706 27.0562Z" fill="#333333"/>
<path d="M12.7697 20.8343C13.3122 20.8343 13.768 20.6575 14.1372 20.3041C14.5063 19.9507 14.6909 19.5156 14.6909 18.9988C14.6909 18.482 14.5063 18.0456 14.1372 17.6897C13.768 17.3338 13.3135 17.1559 12.7736 17.1559C12.2337 17.1559 11.7779 17.3326 11.4061 17.686C11.0344 18.0395 10.8485 18.4746 10.8485 18.9914C10.8485 19.5082 11.0335 19.9445 11.4034 20.3004C11.7734 20.6563 12.2288 20.8343 12.7697 20.8343ZM20.5598 20.8343C21.0996 20.8343 21.5554 20.6575 21.9272 20.3041C22.299 19.9507 22.4848 19.5156 22.4848 18.9988C22.4848 18.482 22.3002 18.0456 21.931 17.6897C21.5618 17.3338 21.1073 17.1559 20.5675 17.1559C20.0276 17.1559 19.5718 17.3326 19.2001 17.686C18.8283 18.0395 18.6424 18.4746 18.6424 18.9914C18.6424 19.5082 18.8271 19.9445 19.1963 20.3004C19.5655 20.6563 20.02 20.8343 20.5598 20.8343ZM16.6628 14.1121C17.2027 14.1121 17.6585 13.9354 18.0302 13.582C18.402 13.2286 18.5879 12.7935 18.5879 12.2766C18.5879 11.7598 18.4033 11.3235 18.0341 10.9676C17.6649 10.6117 17.2104 10.4337 16.6705 10.4337C16.1307 10.4337 15.6749 10.6108 15.3031 10.9649C14.9314 11.3191 14.7455 11.7551 14.7455 12.2729C14.7455 12.7922 14.9301 13.2286 15.2993 13.582C15.6685 13.9354 16.123 14.1121 16.6628 14.1121Z" fill="#FB792B"/>
</svg>
