<svg width="33" height="32" viewBox="0 0 33 32" fill="none" xmlns="http://www.w3.org/2000/svg">
<path d="M7.39731 14.2947C7.13215 14.2947 6.90988 14.2048 6.73051 14.025C6.55112 13.8452 6.46143 13.6365 6.46143 13.3988V7.69203C6.46143 7.45436 6.55112 7.24561 6.73051 7.06578C6.90988 6.88598 7.13215 6.79608 7.39731 6.79608H13.3325C13.5976 6.79608 13.8199 6.88598 13.9993 7.06578C14.1787 7.24561 14.2684 7.45436 14.2684 7.69203V13.3988C14.2684 13.6365 14.1787 13.8452 13.9993 14.025C13.8199 14.2048 13.5976 14.2947 13.3325 14.2947H7.39731ZM19.5224 25.9024C19.2741 25.9024 19.0561 25.8165 18.8682 25.6448C18.6804 25.4731 18.5865 25.2603 18.5865 25.0064V19.3245C18.5865 19.0707 18.6804 18.8579 18.8682 18.6862C19.0561 18.5145 19.2741 18.4286 19.5224 18.4286H25.4836C25.7318 18.4286 25.9499 18.5145 26.1377 18.6862C26.3255 18.8579 26.4195 19.0707 26.4195 19.3245V25.0064C26.4195 25.2603 26.3255 25.4731 26.1377 25.6448C25.9499 25.8165 25.7318 25.9024 25.4836 25.9024H19.5224ZM7.39731 25.9024C7.13215 25.9024 6.90988 25.8165 6.73051 25.6448C6.55112 25.4731 6.46143 25.2603 6.46143 25.0064V19.3245C6.46143 19.0707 6.55112 18.8579 6.73051 18.6862C6.90988 18.5145 7.13215 18.4286 7.39731 18.4286H13.3325C13.5976 18.4286 13.8199 18.5145 13.9993 18.6862C14.1787 18.8579 14.2684 19.0707 14.2684 19.3245V25.0064C14.2684 25.2603 14.1787 25.4731 13.9993 25.6448C13.8199 25.8165 13.5976 25.9024 13.3325 25.9024H7.39731ZM7.5013 13.2992H13.2285V7.79158H7.5013V13.2992ZM19.6264 24.9069H25.3796V19.4241H19.6264V24.9069ZM7.5013 24.9069H13.2285V19.4241H7.5013V24.9069Z" fill="#333333"/>
<path d="M22.447 15.564C22.3258 15.564 22.2132 15.5383 22.1092 15.4869C22.0052 15.4355 21.9059 15.3644 21.8111 15.2737L17.6161 11.2577C17.5213 11.1669 17.4471 11.0685 17.3933 10.9624C17.3396 10.8562 17.3127 10.7425 17.3127 10.6212C17.3127 10.5134 17.3396 10.4057 17.3933 10.2978C17.4471 10.19 17.5213 10.0907 17.6161 9.99995L21.8111 5.98392C21.9059 5.89322 22.0087 5.82215 22.1196 5.77071C22.2305 5.71928 22.3493 5.69357 22.476 5.69357C22.5885 5.69357 22.7011 5.71928 22.8138 5.77071C22.9264 5.82215 23.0301 5.89322 23.1249 5.98392L27.3199 9.99995C27.4147 10.0907 27.4889 10.1925 27.5427 10.3054C27.5964 10.4184 27.6233 10.5329 27.6233 10.6489C27.6233 10.7649 27.5964 10.8727 27.5427 10.9723C27.4889 11.0718 27.4147 11.1669 27.3199 11.2577L23.1249 15.2737C23.0301 15.3644 22.9238 15.4355 22.8058 15.4869C22.6878 15.5383 22.5682 15.564 22.447 15.564ZM22.5434 14.576L26.5911 10.701L22.5434 6.80108L18.4696 10.701L22.5434 14.576Z" fill="#FB792B"/>
</svg>
