<svg width="49" height="50" viewBox="0 0 49 50" fill="none" xmlns="http://www.w3.org/2000/svg">
<g clip-path="url(#clip0_222_84)">
<rect x="0.79857" y="1.07634" width="47.6528" height="47.6528" rx="23.8264" fill="white" stroke="#EBEBEB" stroke-width="1.01389"/>
<path opacity="0.5" d="M14.9154 31.166L18.5254 34.7632C18.6729 34.9107 18.7488 35.085 18.7531 35.2859C18.7573 35.4869 18.6814 35.6654 18.5254 35.8214C18.3778 35.9775 18.2036 36.0555 18.0026 36.0555C17.8016 36.0555 17.6231 35.9775 17.4671 35.8214L12.7302 31.0846C12.6285 30.9828 12.5556 30.8768 12.5115 30.7666C12.4674 30.6563 12.4453 30.5393 12.4453 30.4155C12.4453 30.2832 12.4674 30.1641 12.5115 30.0581C12.5556 29.9521 12.6285 29.8482 12.7302 29.7464L17.5002 24.9765C17.6477 24.829 17.822 24.7531 18.023 24.7488C18.2239 24.7446 18.4024 24.8205 18.5585 24.9765C18.706 25.1325 18.7798 25.3089 18.7798 25.5056C18.7798 25.7024 18.706 25.8745 18.5585 26.0221L14.9154 29.665H35.1223C35.3411 29.665 35.5208 29.7354 35.6616 29.8762C35.8024 30.017 35.8727 30.1967 35.8727 30.4155C35.8727 30.6343 35.8024 30.8141 35.6616 30.9548C35.5208 31.0956 35.3411 31.166 35.1223 31.166H14.9154ZM34.3413 20.1735H14.1345C13.9157 20.1735 13.7359 20.1031 13.5952 19.9623C13.4544 19.8215 13.384 19.6418 13.384 19.423C13.384 19.2042 13.4544 19.0244 13.5952 18.8837C13.7359 18.7429 13.9157 18.6725 14.1345 18.6725H34.3413L30.711 15.0422C30.5635 14.8947 30.4876 14.7205 30.4833 14.5195C30.4791 14.3185 30.555 14.14 30.711 13.984C30.8586 13.828 31.0328 13.7499 31.2338 13.7499C31.4348 13.7499 31.609 13.828 31.7566 13.984L36.5265 18.7539C36.6283 18.8557 36.7033 18.9596 36.7517 19.0656C36.8 19.1716 36.8242 19.2907 36.8242 19.423C36.8242 19.5468 36.8 19.6617 36.7517 19.7677C36.7033 19.8737 36.6283 19.9776 36.5265 20.0793L31.7896 24.8289C31.6421 24.9765 31.4657 25.0524 31.2605 25.0566C31.0553 25.0609 30.8789 24.985 30.7314 24.8289C30.5753 24.6729 30.4973 24.4965 30.4973 24.2998C30.4973 24.1031 30.5753 23.9267 30.7314 23.7707L34.3413 20.1735Z" fill="#333333"/>
</g>
<defs>
<clipPath id="clip0_222_84">
<rect x="0.291626" y="0.569397" width="48.6667" height="48.6667" rx="24.3333" fill="white"/>
</clipPath>
</defs>
</svg>
