<svg width="25" height="26" viewBox="0 0 25 26" fill="none" xmlns="http://www.w3.org/2000/svg">
<path d="M4.14583 21.2083C3.7276 21.2083 3.36957 21.0594 3.07174 20.7615C2.77391 20.4637 2.625 20.1057 2.625 19.6874V16.3416C2.625 16.1695 2.67147 16.0209 2.76441 15.8957C2.85735 15.7705 2.97986 15.6826 3.13194 15.6319C3.65579 15.446 4.06557 15.1123 4.36128 14.6307C4.657 14.1491 4.80486 13.6421 4.80486 13.1098C4.80486 12.5775 4.657 12.0664 4.36128 11.5763C4.06557 11.0863 3.65579 10.7483 3.13194 10.5624C2.97986 10.5117 2.85735 10.4238 2.76441 10.2987C2.67147 10.1735 2.625 10.0248 2.625 9.85272V6.50689C2.625 6.08866 2.77391 5.73063 3.07174 5.4328C3.36957 5.13497 3.7276 4.98605 4.14583 4.98605H21.3819C21.8002 4.98605 22.1582 5.13497 22.456 5.4328C22.7539 5.73063 22.9028 6.08866 22.9028 6.50689V9.85272C22.9028 10.0248 22.8563 10.1735 22.7634 10.2987C22.6704 10.4238 22.5479 10.5117 22.3958 10.5624C21.872 10.7483 21.4622 11.0863 21.1665 11.5763C20.8708 12.0664 20.7229 12.5775 20.7229 13.1098C20.7229 13.6421 20.8708 14.1491 21.1665 14.6307C21.4622 15.1123 21.872 15.446 22.3958 15.6319C22.5479 15.6826 22.6704 15.7705 22.7634 15.8957C22.8563 16.0209 22.9028 16.1695 22.9028 16.3416V19.6874C22.9028 20.1057 22.7539 20.4637 22.456 20.7615C22.1582 21.0594 21.8002 21.2083 21.3819 21.2083H4.14583ZM4.14583 19.6874H21.3819V16.9246C20.7398 16.4852 20.216 15.9361 19.8104 15.277C19.4049 14.618 19.2021 13.8914 19.2021 13.0972C19.2021 12.303 19.4049 11.5763 19.8104 10.9173C20.216 10.2583 20.7398 9.70909 21.3819 9.26973V6.50689H4.14583V9.26973C4.80486 9.70909 5.33293 10.2583 5.73003 10.9173C6.12714 11.5763 6.32569 12.303 6.32569 13.0972C6.32569 13.8914 6.12714 14.618 5.73003 15.277C5.33293 15.9361 4.80486 16.4852 4.14583 16.9246V19.6874ZM12.7639 18.0906C12.9667 18.0906 13.1441 18.0145 13.2962 17.8624C13.4483 17.7104 13.5243 17.5329 13.5243 17.3302C13.5243 17.1274 13.4483 16.9499 13.2962 16.7979C13.1441 16.6458 12.9667 16.5697 12.7639 16.5697C12.5611 16.5697 12.3837 16.6458 12.2316 16.7979C12.0795 16.9499 12.0035 17.1274 12.0035 17.3302C12.0035 17.5329 12.0795 17.7104 12.2316 17.8624C12.3837 18.0145 12.5611 18.0906 12.7639 18.0906ZM12.7639 13.8576C12.9667 13.8576 13.1441 13.7815 13.2962 13.6295C13.4483 13.4774 13.5243 13.2999 13.5243 13.0972C13.5243 12.8944 13.4483 12.717 13.2962 12.5649C13.1441 12.4128 12.9667 12.3367 12.7639 12.3367C12.5611 12.3367 12.3837 12.4128 12.2316 12.5649C12.0795 12.717 12.0035 12.8944 12.0035 13.0972C12.0035 13.2999 12.0795 13.4774 12.2316 13.6295C12.3837 13.7815 12.5611 13.8576 12.7639 13.8576ZM12.7639 9.6246C12.9667 9.6246 13.1441 9.54855 13.2962 9.39647C13.4483 9.24439 13.5243 9.06696 13.5243 8.86418C13.5243 8.6614 13.4483 8.48397 13.2962 8.33189C13.1441 8.1798 12.9667 8.10376 12.7639 8.10376C12.5611 8.10376 12.3837 8.1798 12.2316 8.33189C12.0795 8.48397 12.0035 8.6614 12.0035 8.86418C12.0035 9.06696 12.0795 9.24439 12.2316 9.39647C12.3837 9.54855 12.5611 9.6246 12.7639 9.6246Z" fill="white"/>
</svg>
