<svg width="33" height="34" viewBox="0 0 33 34" fill="none" xmlns="http://www.w3.org/2000/svg">
<g clip-path="url(#clip0_222_62)">
<path fill-rule="evenodd" clip-rule="evenodd" d="M26.3013 16.6708C26.2881 16.4802 26.4594 14.9391 26.5081 14.6065C26.5162 14.5609 26.5426 14.497 26.4949 14.4686C26.4513 14.4433 26.4047 14.494 26.3631 14.5163C26.2637 14.568 26.211 14.6562 26.1755 14.7596C26.0731 15.0719 25.4628 16.7955 25.4212 16.8178C25.4161 16.9415 25.2995 16.9303 25.2215 16.9679C25.0004 16.9689 24.9254 17.0895 24.8818 17.3004C24.603 18.6621 24.308 20.0217 24.017 21.3813C24.0068 21.429 23.9906 21.4746 23.9744 21.5334C23.8314 21.4188 23.6885 21.3225 23.511 21.2992C23.1349 21.2485 22.7962 21.433 22.6563 21.7859C22.6137 21.8943 22.5701 21.9106 22.4667 21.8893C22.0206 21.7919 21.7905 21.4411 21.8878 20.9869C22.0754 20.1069 22.2629 19.2278 22.4535 18.3467C22.5509 17.9006 22.8926 17.6837 23.3397 17.778C23.6307 17.8408 23.9217 17.9098 24.2137 17.9645C24.4286 18.0051 24.3931 18.0416 24.4428 17.8063C24.4955 17.5579 24.5442 17.3075 24.6091 17.0611C24.6375 16.9445 24.6121 16.8715 24.5077 16.8198C24.3718 16.7489 24.3353 16.6231 24.3191 16.4842C24.3191 16.4619 24.3221 16.4437 24.3272 16.4264C24.3221 16.3839 24.8585 14.5974 24.9589 14.2476C25.0704 13.8664 25.2914 13.5926 25.6463 13.4132C26.1228 13.1739 26.5922 12.9174 27.0627 12.669C27.2492 12.5696 27.4419 12.4804 27.6538 12.454C28.2865 12.377 28.8218 12.89 28.7711 13.5409C28.7457 13.8806 28.6869 14.2182 28.6393 14.5568L28.327 16.7499C28.2976 16.9608 28.3736 17.125 28.5318 17.2609C28.8329 17.5204 29.128 17.7881 29.4362 18.0395C29.7556 18.3011 29.9046 18.6296 29.929 19.0402C29.9827 19.9325 30.0577 20.8247 30.1236 21.7169C30.149 22.0748 29.9624 22.3729 29.639 22.4956C29.3348 22.6142 28.9901 22.5209 28.7822 22.2654C28.6849 22.1468 28.6281 22.012 28.616 21.8578C28.5663 21.2262 28.5186 20.5935 28.472 19.9629C28.4548 19.752 28.4355 19.5411 28.4304 19.3292C28.4274 19.2126 28.3838 19.1355 28.2966 19.0615C27.8363 18.6732 27.3841 18.2737 26.9218 17.8875C26.6328 17.6472 26.4047 17.3724 26.3043 17.0033C26.3043 17.0033 26.3063 16.7529 26.3013 16.6688M28.3037 12.0961C28.9729 12.0961 29.5122 11.5588 29.5133 10.8906C29.5153 10.2123 28.9759 9.66988 28.3006 9.67293C27.6295 9.67394 27.0901 10.2103 27.0891 10.8764C27.086 11.5537 27.6254 12.0961 28.3037 12.0961Z" fill="#FB792B"/>
<path fill-rule="evenodd" clip-rule="evenodd" d="M23.3786 21.6165C23.1261 21.6206 22.9172 21.8304 22.9172 22.0799C22.9162 22.3374 23.1342 22.5493 23.3968 22.5463C23.6513 22.5442 23.851 22.3404 23.851 22.0819C23.851 21.8152 23.6432 21.6114 23.3786 21.6165ZM28.8373 15.3912C28.9103 14.9492 28.9489 14.6197 29.0219 14.2141L29.106 14.2628L30.7282 15.3223C30.9168 15.447 31.1135 15.5636 31.2899 15.7005C31.5191 15.8789 31.4826 16.2439 31.2291 16.466C31.0101 16.6586 30.7323 16.6951 30.5143 16.5532C29.9334 16.178 29.4781 15.9722 28.8982 15.595C28.7937 15.5271 28.815 15.5332 28.8373 15.3912ZM27.3976 18.7208C27.0397 18.4045 26.6565 18.1145 26.3117 17.7506L26.2621 17.8864L25.3678 20.6675C25.2634 20.994 25.1468 21.3164 25.0657 21.6449C24.9612 22.0728 25.2776 22.4935 25.7146 22.5402C26.0897 22.5807 26.4081 22.3779 26.5287 22.0038C26.8521 21.0133 27.1705 20.0207 27.4909 19.0291C27.5487 18.8516 27.5456 18.8527 27.3976 18.7208Z" fill="#FB792B"/>
<path fill-rule="evenodd" clip-rule="evenodd" d="M16.5435 23.783H5.51237C3.75125 23.783 2.32471 22.3564 2.32471 20.5943V7.66316C2.32471 6.95344 2.90262 6.37552 3.61235 6.37552H18.4455C19.1553 6.37552 19.7332 6.95344 19.7332 7.66316V20.5943C19.7332 22.3564 18.3036 23.783 16.5435 23.783Z" stroke="#333333" stroke-width="1.01389" stroke-linecap="round"/>
<path d="M13.7518 4.01416H7.9939" stroke="#333333" stroke-width="1.01389" stroke-linecap="round"/>
<path fill-rule="evenodd" clip-rule="evenodd" d="M6.93792 19.405C6.93792 20.0478 6.4178 20.5679 5.77499 20.5679C5.13219 20.5679 4.61206 20.0478 4.61206 19.405C4.61206 18.7632 5.13219 18.2431 5.77499 18.2431C6.4178 18.2431 6.93792 18.7632 6.93792 19.405ZM17.3871 19.405C17.3871 20.0478 16.8669 20.5679 16.2251 20.5679C15.5823 20.5679 15.0622 20.0478 15.0622 19.405C15.0622 18.7632 15.5823 18.2431 16.2251 18.2431C16.8669 18.2431 17.3871 18.7632 17.3871 19.405Z" fill="#FB792B"/>
<path d="M4.1699 23.783L0.974121 29.7639M17.5836 23.783L20.7794 29.7639M3.5565 28.9883H18.195M6.44507 26.3856H15.3065" stroke="#333333" stroke-width="1.01389" stroke-linecap="round"/>
<path d="M10.5564 4.01416L11.7082 5.27037V6.37652" stroke="#333333" stroke-width="1.01389" stroke-linecap="round" stroke-linejoin="round"/>
<path fill-rule="evenodd" clip-rule="evenodd" d="M10.1317 15.4741H5.63506C5.20922 15.4741 4.8645 15.1284 4.8645 14.7016V9.94034C4.8645 9.51451 5.20922 9.16776 5.63506 9.16776H10.1317C10.5575 9.16776 10.9042 9.51451 10.9042 9.94034V14.7016C10.9042 15.1274 10.5575 15.4741 10.1317 15.4741Z" stroke="#333333" stroke-width="1.01389" stroke-linecap="round"/>
<path fill-rule="evenodd" clip-rule="evenodd" d="M16.4026 15.4741H5.63408C5.20825 15.4741 4.86353 15.1284 4.86353 14.7016V9.94034C4.86353 9.51451 5.20825 9.16776 5.63408 9.16776H16.4016C16.8294 9.16776 17.1752 9.51451 17.1752 9.94034V14.7016C17.1752 15.1274 16.8305 15.4741 16.4026 15.4741Z" stroke="#333333" stroke-width="1.01389" stroke-linecap="round"/>
</g>
<defs>
<clipPath id="clip0_222_62">
<rect width="32.4444" height="32.4444" fill="white" transform="translate(0.236084 0.666626)"/>
</clipPath>
</defs>
</svg>
