<svg width="34" height="32" viewBox="0 0 34 32" fill="none" xmlns="http://www.w3.org/2000/svg">
<path fill-rule="evenodd" clip-rule="evenodd" d="M26.6556 27.3059H6.74995C6.00373 27.3059 5.39844 26.7265 5.39844 26.0121V9.10682C5.39844 8.3905 6.00373 7.81201 6.74995 7.81201H26.6556C27.4019 7.81201 28.0082 8.3905 28.0082 9.10682V26.0121C28.0082 26.7265 27.4019 27.3059 26.6556 27.3059Z" stroke="#333333" stroke-width="1.01389"/>
<path d="M22.5413 5.25635V10.6918M10.6636 5.25635V10.6918M28.0082 13.8094H5.39844" stroke="#333333" stroke-width="1.01389" stroke-linecap="round"/>
<path fill-rule="evenodd" clip-rule="evenodd" d="M11.28 19.4196H9.54216C9.06157 19.4196 8.67224 19.0469 8.67224 18.5878V17.2416C8.67224 16.7825 9.06157 16.4107 9.54216 16.4107H11.28C11.7605 16.4107 12.1499 16.7825 12.1499 17.2416V18.5878C12.1499 19.0469 11.7605 19.4196 11.28 19.4196ZM17.5711 19.4196H15.8344C15.3538 19.4196 14.9665 19.0469 14.9665 18.5878V17.2416C14.9665 16.7825 15.3538 16.4107 15.8344 16.4107H17.5722C18.0527 16.4107 18.4421 16.7825 18.4421 17.2416V18.5878C18.4421 19.0469 18.0517 19.4196 17.5711 19.4196ZM23.8644 19.4196H22.1255C21.645 19.4196 21.2556 19.0469 21.2556 18.5878V17.2416C21.2556 16.7825 21.645 16.4107 22.1255 16.4107H23.8633C24.3439 16.4107 24.7333 16.7825 24.7333 17.2416V18.5878C24.7333 19.0469 24.3449 19.4196 23.8644 19.4196ZM11.28 24.4368H9.54216C9.06157 24.4368 8.67224 24.0641 8.67224 23.604V22.2587C8.67224 21.7986 9.06157 21.4279 9.54216 21.4279H11.28C11.7605 21.4279 12.1499 21.7986 12.1499 22.2587V23.604C12.1499 24.0641 11.7605 24.4368 11.28 24.4368ZM17.5711 24.4368H15.8344C15.3538 24.4368 14.9665 24.0641 14.9665 23.604V22.2587C14.9665 21.7986 15.3538 21.4279 15.8344 21.4279H17.5722C18.0527 21.4279 18.4421 21.7986 18.4421 22.2587V23.604C18.4421 24.0641 18.0517 24.4368 17.5711 24.4368ZM23.8644 24.4368H22.1255C21.645 24.4368 21.2556 24.0641 21.2556 23.604V22.2587C21.2556 21.7986 21.645 21.4279 22.1255 21.4279H23.8633C24.3439 21.4279 24.7333 21.7986 24.7333 22.2587V23.604C24.7333 24.0641 24.3449 24.4368 23.8644 24.4368Z" fill="#FB792B"/>
</svg>
