<svg width="34" height="34" viewBox="0 0 34 34" fill="none" xmlns="http://www.w3.org/2000/svg">
<g clip-path="url(#clip0_222_40)">
<path fill-rule="evenodd" clip-rule="evenodd" d="M5.10216 16.7263C5.08898 16.5357 5.26033 14.9946 5.309 14.6621C5.31711 14.6164 5.34347 14.5526 5.29581 14.5242C5.25222 14.4988 5.20558 14.5495 5.16401 14.5718C5.06465 14.6235 5.01193 14.7117 4.97644 14.8151C4.87404 15.1274 4.26368 16.851 4.22211 16.8733C4.21704 16.997 4.10044 16.9859 4.02237 17.0234C3.80134 17.0244 3.72631 17.1451 3.68272 17.356C3.4039 18.7176 3.10886 20.0772 2.81787 21.4369C2.80773 21.4845 2.79151 21.5301 2.77529 21.5889C2.63233 21.4744 2.48937 21.378 2.31194 21.3547C1.93579 21.304 1.59715 21.4886 1.45723 21.8414C1.41465 21.9499 1.37105 21.9661 1.26763 21.9448C0.821523 21.8475 0.59137 21.4967 0.688703 21.0425C0.876273 20.1624 1.06384 19.2834 1.25445 18.4023C1.35179 17.9562 1.69347 17.7392 2.14059 17.8335C2.43158 17.8964 2.72256 17.9653 3.01456 18.0201C3.22951 18.0606 3.19402 18.0971 3.2437 17.8619C3.29643 17.6135 3.34509 17.3631 3.40998 17.1167C3.43837 17.0001 3.41302 16.9271 3.30859 16.8754C3.17273 16.8044 3.13623 16.6787 3.12001 16.5398C3.12001 16.5175 3.12305 16.4992 3.12812 16.482C3.12305 16.4394 3.6594 14.6529 3.75977 14.3031C3.8713 13.9219 4.09233 13.6482 4.44719 13.4687C4.92372 13.2294 5.39315 12.9729 5.86359 12.7245C6.05015 12.6251 6.24279 12.5359 6.45469 12.5096C7.08736 12.4325 7.62269 12.9455 7.572 13.5965C7.54665 13.9361 7.48784 14.2737 7.44019 14.6124L7.12791 16.8054C7.09851 17.0163 7.17455 17.1806 7.33272 17.3164C7.63384 17.576 7.92888 17.8436 8.23711 18.0951C8.55648 18.3567 8.70552 18.6852 8.72986 19.0958C8.78359 19.988 8.85862 20.8802 8.92452 21.7725C8.94987 22.1304 8.76332 22.4284 8.43988 22.5511C8.13572 22.6697 7.791 22.5765 7.58315 22.321C7.48582 22.2023 7.42904 22.0675 7.41687 21.9134C7.36719 21.2817 7.31954 20.6491 7.2729 20.0184C7.25566 19.8075 7.2364 19.5966 7.23133 19.3847C7.22829 19.2681 7.18469 19.1911 7.0975 19.1171C6.63719 18.7288 6.185 18.3293 5.72266 17.943C5.4337 17.7027 5.20558 17.4279 5.1052 17.0589C5.1052 17.0589 5.10723 16.8085 5.10216 16.7243M7.10459 12.1517C7.77376 12.1517 8.31315 11.6143 8.31416 10.9461C8.31619 10.2679 7.7768 9.72543 7.10155 9.72847C6.43036 9.72948 5.89097 10.2658 5.88995 10.932C5.88691 11.6092 6.4263 12.1517 7.10459 12.1517Z" fill="#FB792B"/>
<path fill-rule="evenodd" clip-rule="evenodd" d="M2.17934 21.6721C1.92688 21.6761 1.71802 21.886 1.71802 22.1354C1.71701 22.3929 1.93499 22.6048 2.19759 22.6018C2.45208 22.5998 2.65181 22.396 2.65181 22.1374C2.65181 21.8708 2.44397 21.667 2.17934 21.6721ZM7.63812 15.4468C7.71112 15.0047 7.74965 14.6752 7.82265 14.2697L7.9068 14.3183L9.52902 15.3778C9.71761 15.5025 9.9143 15.6191 10.0907 15.756C10.3199 15.9345 10.2834 16.2995 10.0299 16.5215C9.81088 16.7141 9.53308 16.7506 9.31509 16.6087C8.73413 16.2336 8.2789 16.0277 7.69895 15.6506C7.59452 15.5826 7.61581 15.5887 7.63812 15.4468ZM6.1984 18.7764C5.84049 18.4601 5.45724 18.1701 5.11252 17.8061L5.06284 17.942L4.16859 20.7231C4.06416 21.0495 3.94756 21.3719 3.86645 21.7004C3.76202 22.1283 4.07835 22.5491 4.51534 22.5957C4.89048 22.6363 5.20884 22.4335 5.32949 22.0594C5.65292 21.0688 5.97129 20.0762 6.29167 19.0846C6.34947 18.9072 6.34642 18.9082 6.1984 18.7764Z" fill="#FB792B"/>
<path fill-rule="evenodd" clip-rule="evenodd" d="M26.4376 23.8385H15.4065C13.6454 23.8385 12.2189 22.412 12.2189 20.6498V7.7187C12.2189 7.00898 12.7958 6.43106 13.5065 6.43106H28.3377C29.0484 6.43106 29.6253 7.00898 29.6253 7.7187V20.6498C29.6253 22.412 28.1978 23.8385 26.4376 23.8385Z" stroke="#333333" stroke-width="1.01389" stroke-linecap="round"/>
<path d="M23.6453 4.0697H17.8875" stroke="#333333" stroke-width="1.01389" stroke-linecap="round"/>
<path fill-rule="evenodd" clip-rule="evenodd" d="M16.8311 19.4605C16.8311 20.1033 16.3109 20.6235 15.6681 20.6235C15.0264 20.6235 14.5062 20.1033 14.5062 19.4605C14.5062 18.8187 15.0264 18.2986 15.6681 18.2986C16.3109 18.2986 16.8311 18.8187 16.8311 19.4605ZM27.2812 19.4605C27.2812 20.1033 26.7611 20.6235 26.1183 20.6235C25.4755 20.6235 24.9554 20.1033 24.9554 19.4605C24.9554 18.8187 25.4755 18.2986 26.1183 18.2986C26.7611 18.2986 27.2812 18.8187 27.2812 19.4605Z" fill="#FB792B"/>
<path d="M14.0632 23.8385L10.8684 29.8194M27.4769 23.8385L30.6727 29.8194M13.4498 29.0438H28.0883M16.3383 26.4412H25.2007" stroke="#333333" stroke-width="1.01389" stroke-linecap="round"/>
<path d="M20.4496 4.0697L21.6014 5.32591V6.43206" stroke="#333333" stroke-width="1.01389" stroke-linecap="round" stroke-linejoin="round"/>
<path fill-rule="evenodd" clip-rule="evenodd" d="M20.0258 15.5297H15.5271C15.1013 15.5297 14.7566 15.1839 14.7566 14.7571V9.99588C14.7566 9.57005 15.1013 9.2233 15.5271 9.2233H20.0258C20.4516 9.2233 20.7984 9.57005 20.7984 9.99588V14.7571C20.7984 15.1829 20.4516 15.5297 20.0258 15.5297Z" stroke="#333333" stroke-width="1.01389" stroke-linecap="round"/>
<path fill-rule="evenodd" clip-rule="evenodd" d="M26.2957 15.5297H15.5282C15.1013 15.5297 14.7566 15.1839 14.7566 14.7571V9.99588C14.7566 9.57005 15.1013 9.2233 15.5271 9.2233H26.2957C26.7235 9.2233 27.0682 9.57005 27.0682 9.99588V14.7571C27.0682 15.1829 26.7235 15.5297 26.2957 15.5297Z" stroke="#333333" stroke-width="1.01389" stroke-linecap="round"/>
</g>
<defs>
<clipPath id="clip0_222_40">
<rect width="32.4444" height="32.4444" fill="white" transform="translate(0.666626 0.722168)"/>
</clipPath>
</defs>
</svg>
